<svg xmlns="http://www.w3.org/2000/svg" viewBox="0 0 380 96" role="img" aria-labelledby="title desc">
  <title id="title">D.AI 品牌字標</title>
  <desc id="desc">工程圖紙切角標誌搭配 D.AI 字標與 DIGITAL PRODUCT STUDIO 英文輔助字。</desc>
  <g transform="translate(8 8) scale(.8333333)">
    <path fill="#14243A" d="M22 4h38l32 32v38a18 18 0 0 1-18 18H22A18 18 0 0 1 4 74V22A18 18 0 0 1 22 4Z"/>
    <path fill="#243957" d="M60 4v17a15 15 0 0 0 15 15h17L60 4Z"/>
    <path fill="#FFFFFF" fill-rule="evenodd" d="M24 22h22c18 0 30 12 30 31S64 84 46 84H24V22Zm14 13v36h8c10 0 16-6 16-18s-6-18-16-18h-8Z"/>
    <path d="M42 57h7l7-7h3" fill="none" stroke="#3157F6" stroke-linecap="round" stroke-linejoin="round" stroke-width="3.5"/>
    <circle cx="61" cy="50" r="3.2" fill="#3157F6"/>
  </g>
  <text x="104" y="59" fill="#14243A" font-family="Arial, Helvetica, sans-serif" font-size="54" font-weight="750" letter-spacing="-2">D.</text>
  <text x="163" y="59" fill="#3157F6" font-family="Arial, Helvetica, sans-serif" font-size="54" font-weight="750" letter-spacing="-2">AI</text>
  <text x="108" y="81" fill="#526071" font-family="Arial, Helvetica, sans-serif" font-size="9" font-weight="700" letter-spacing="2.3">DIGITAL PRODUCT STUDIO</text>
</svg>
